<?xml version="1.0" standalone="no"?>
<!DOCTYPE svg PUBLIC "-//W3C//DTD SVG 20010904//EN"
 "http://www.w3.org/TR/2001/REC-SVG-20010904/DTD/svg10.dtd">
<svg version="1.0" xmlns="http://www.w3.org/2000/svg"
 width="545.000000pt" height="335.000000pt" viewBox="0 0 545.000000 335.000000"
 preserveAspectRatio="xMidYMid meet">

<g transform="translate(0.000000,335.000000) scale(0.100000,-0.100000)"
fill="#000000" stroke="none">
<path d="M2416 3169 c-145 -15 -284 -58 -441 -134 -168 -82 -286 -164 -406
-284 -123 -122 -169 -185 -150 -204 10 -9 20 -3 47 28 133 150 178 195 247
247 43 32 87 58 97 58 9 0 37 -17 60 -38 l43 -38 -64 -40 c-114 -73 -250 -184
-247 -202 5 -24 36 -16 78 18 61 51 240 170 255 170 8 0 19 -18 26 -42 10 -40
8 -62 -12 -137 -8 -31 28 -21 45 12 15 26 17 48 14 103 -3 38 -8 76 -12 84 -5
12 9 22 57 43 62 27 206 72 211 65 2 -2 27 -73 56 -158 62 -181 75 -210 95
-210 25 0 26 -7 -65 267 -16 50 -30 98 -30 106 0 15 52 31 148 44 41 6 42 5
42 -22 0 -70 47 -108 347 -283 186 -109 213 -121 213 -99 0 21 -21 36 -200
140 -221 129 -260 156 -287 196 -27 39 -30 76 -7 85 57 22 355 -4 514 -44 186
-48 452 -169 570 -260 96 -74 108 -82 119 -76 20 13 -6 54 -93 142 -114 115
-200 186 -296 246 -286 178 -625 254 -974 217z m165 -81 c-16 -24 -36 -55 -44
-70 -13 -21 -27 -28 -64 -33 -27 -4 -75 -13 -108 -21 -33 -8 -63 -14 -67 -14
-4 0 -16 30 -27 67 -20 67 -18 81 14 83 6 1 48 7 95 14 47 8 118 14 157 15
l73 1 -29 -42z m418 -14 c182 -52 322 -120 444 -215 43 -34 77 -63 75 -65 -2
-2 -38 14 -79 35 -90 48 -289 116 -413 143 -60 13 -149 21 -263 25 -95 3 -173
8 -173 10 0 11 62 94 80 106 27 18 196 -2 329 -39z m-781 -66 c12 -35 22 -66
22 -70 0 -3 -15 -10 -32 -13 -37 -8 -104 -34 -191 -73 -52 -23 -60 -25 -67
-11 -5 9 -28 28 -50 44 -33 23 -38 31 -28 40 34 32 273 144 309 145 10 0 23
-21 37 -62z"/>
<path d="M2267 2446 c-46 -17 -64 -32 -83 -67 -34 -66 -12 -132 52 -161 41
-18 52 -19 88 -8 56 16 83 35 106 73 42 68 14 146 -58 167 -47 13 -58 12 -105
-4z m97 -51 c7 -20 -11 -79 -35 -109 -25 -31 -64 -35 -72 -6 -18 69 83 177
107 115z"/>
<path d="M2556 2438 c-14 -13 -28 -35 -32 -50 -6 -28 11 -50 67 -89 27 -19 18
-39 -18 -39 -15 0 -36 12 -54 31 l-28 30 -21 -40 c-21 -41 -20 -45 13 -41 10
1 38 -6 62 -16 42 -16 48 -16 90 1 82 31 97 104 30 148 -39 25 -47 57 -15 57
12 0 32 -12 47 -26 14 -14 26 -24 28 -22 1 2 8 13 14 26 10 19 9 23 -6 28 -10
3 -28 10 -41 15 -43 17 -109 11 -136 -13z"/>
<path d="M3595 2437 c-85 -48 -107 -148 -44 -201 36 -30 54 -32 109 -10 31 13
44 14 53 5 24 -24 43 -11 66 44 12 30 20 59 16 65 -9 14 -112 13 -121 -2 -4
-6 -2 -14 4 -16 29 -9 4 -62 -30 -62 -53 0 -35 106 24 136 40 21 84 18 102 -7
l14 -21 18 27 c13 19 14 29 5 38 -6 6 -11 8 -11 5 0 -4 -16 0 -35 8 -52 21
-123 18 -170 -9z"/>
<path d="M4858 2429 c-45 -44 -35 -73 43 -131 24 -17 24 -18 5 -33 -25 -19
-54 -11 -84 22 -13 14 -24 24 -26 22 -17 -23 -36 -55 -36 -62 0 -5 9 -7 21 -4
11 3 36 -1 54 -9 68 -28 129 -13 159 37 23 40 15 69 -29 97 -45 29 -48 62 -6
62 20 0 36 -8 46 -22 16 -22 16 -22 30 -4 15 19 11 41 -5 31 -5 -3 -23 1 -40
10 -45 23 -100 16 -132 -16z"/>
<path d="M1213 2443 c-127 -3 -153 -6 -153 -18 0 -12 15 -15 69 -15 83 0 121
-12 121 -39 0 -37 -28 -46 -159 -52 l-126 -5 117 -2 c64 -1 119 -6 123 -11 3
-5 -4 -26 -16 -45 -20 -35 -23 -36 -80 -36 -33 0 -59 -4 -59 -10 0 -5 24 -10
54 -10 l54 0 -41 -75 c-40 -74 -41 -75 -79 -75 -24 0 -37 -4 -33 -10 3 -5 17
-10 31 -10 13 0 24 -3 24 -7 0 -5 -15 -35 -33 -68 l-32 -60 -127 -3 c-71 -1
-128 -6 -128 -10 0 -4 50 -7 111 -7 82 1 112 -2 116 -12 3 -7 -20 -59 -50
-115 l-55 -103 -131 -3 c-167 -3 -177 -22 -11 -22 66 0 120 -4 120 -8 0 -14
-61 -121 -72 -129 -7 -3 -33 -5 -59 -4 -26 1 -50 -3 -54 -9 -4 -6 11 -10 43
-10 27 0 51 -2 54 -5 3 -3 -15 -44 -40 -90 -43 -81 -46 -84 -86 -90 -22 -4
-107 -5 -189 -3 -81 2 -147 0 -147 -4 0 -5 81 -8 181 -8 101 0 179 -4 177 -9
-1 -5 -14 -32 -28 -59 l-25 -51 -57 -1 c-31 0 -60 -4 -63 -10 -4 -6 13 -10 44
-10 59 0 61 -6 28 -65 l-23 -40 -108 -2 c-101 -1 -141 -11 -122 -30 13 -14
986 -15 1002 -2 8 7 44 65 81 130 l67 119 350 0 c193 0 361 3 374 6 30 8 28
30 -5 46 -56 27 -53 51 27 194 39 71 76 133 80 138 4 4 16 -27 25 -70 45 -211
65 -288 75 -298 15 -15 755 -21 793 -7 18 7 47 46 101 138 41 70 72 131 70
135 -9 14 -33 9 -51 -11 -106 -112 -170 -171 -208 -190 -44 -22 -134 -42 -164
-36 -9 2 -22 4 -28 4 -24 2 -11 35 70 196 l82 160 45 -3 c24 -1 49 -7 54 -12
10 -10 11 -56 1 -101 -11 -50 11 -33 56 44 125 214 131 227 109 227 -5 0 -30
-20 -55 -44 -34 -34 -58 -47 -96 -55 -59 -13 -79 -14 -79 -3 0 4 38 79 84 167
93 178 96 181 181 153 57 -19 75 -59 75 -170 0 -85 1 -88 23 -88 19 0 33 21
89 135 38 75 65 141 62 150 -5 13 -64 15 -485 15 -467 0 -479 0 -479 -19 0
-14 8 -21 28 -23 21 -2 28 -9 30 -29 3 -23 -10 -37 -95 -105 -54 -43 -142
-113 -195 -156 -54 -43 -98 -75 -98 -72 0 10 181 329 197 347 9 9 22 17 30 17
7 0 13 9 13 20 0 20 -5 20 -172 18 -145 -3 -173 -5 -173 -18 0 -8 9 -16 20
-18 11 -2 24 -8 29 -12 10 -10 -57 -138 -82 -157 -9 -7 -37 -13 -64 -13 -26 0
-48 -4 -48 -10 0 -5 20 -10 44 -10 25 0 47 -3 49 -7 3 -5 -24 -60 -60 -123
-36 -63 -81 -144 -100 -180 -142 -260 -153 -257 -113 32 40 286 66 496 62 507
-2 7 -37 11 -96 11 l-93 0 -32 -40 -32 -40 -75 0 c-56 0 -75 -3 -71 -12 2 -9
24 -13 61 -13 37 0 56 -4 54 -11 -2 -7 -31 -46 -66 -88 -52 -64 -67 -76 -92
-76 -34 0 -41 -17 -8 -22 19 -3 15 -11 -41 -80 l-63 -78 -69 0 c-54 0 -69 -3
-69 -15 0 -10 15 -15 55 -17 l55 -3 -91 -115 c-58 -75 -101 -120 -122 -128
-42 -18 -167 -42 -167 -32 0 8 83 163 282 530 143 262 149 274 227 420 40 74
82 143 93 153 16 13 39 17 104 17 68 0 86 3 91 16 3 9 0 20 -8 25 -13 8 -179
9 -536 2z m1775 -426 c21 -24 -13 -57 -59 -57 -21 0 -39 -4 -39 -10 0 -5 13
-10 28 -10 16 0 32 -3 35 -6 7 -8 -120 -256 -137 -266 -6 -4 -37 -8 -69 -8
-76 0 -74 -24 1 -28 29 -2 52 -4 52 -5 0 -12 -166 -317 -181 -332 -17 -17 -21
-18 -34 -5 -8 8 -28 85 -45 170 -16 85 -35 181 -41 212 -9 45 -9 61 1 73 15
18 275 220 332 258 32 21 54 27 94 27 30 0 56 -5 62 -13z m-1303 -240 c-14
-91 -25 -171 -25 -176 0 -7 -39 -11 -110 -11 -60 0 -110 2 -110 5 0 3 44 63
97 133 53 70 113 148 132 174 19 26 37 46 38 44 2 -2 -8 -78 -22 -169z m-55
-244 c0 -54 -32 -199 -48 -217 -18 -20 -72 -46 -97 -46 -13 0 -12 6 5 40 19
37 19 41 4 47 -12 4 -31 -11 -67 -53 -92 -107 -201 -211 -242 -232 -22 -10
-65 -25 -95 -32 -60 -15 -243 -20 -256 -7 -5 4 15 51 44 105 l51 97 200 0
c139 0 203 4 212 12 14 14 3 33 -19 33 -10 0 -28 7 -40 16 -35 25 -28 62 26
130 26 32 60 76 75 97 l28 37 110 0 109 0 0 -27z"/>
<path d="M1944 2439 c-3 -6 -1 -15 6 -19 14 -9 -61 -164 -84 -173 -9 -4 -16
-11 -16 -17 0 -6 43 -10 118 -10 l117 0 23 35 c31 48 28 62 -8 32 -29 -25 -86
-44 -97 -33 -9 9 58 138 80 157 11 9 17 21 13 28 -9 15 -142 15 -152 0z"/>
<path d="M3025 2417 c-22 -17 -51 -42 -65 -54 -17 -16 -37 -23 -67 -23 -45 0
-68 -18 -34 -27 12 -3 21 -8 21 -11 0 -9 -34 -32 -68 -48 -48 -21 -30 -34 49
-34 71 0 86 10 52 36 -17 13 -17 15 3 32 15 13 33 16 68 14 53 -5 68 -22 42
-51 -9 -10 -16 -21 -16 -24 0 -4 52 -7 115 -7 111 0 127 4 104 27 -7 7 -2 27
18 67 l29 57 39 -76 c37 -70 42 -75 69 -73 25 3 36 15 83 101 30 53 61 97 69
97 8 0 14 7 14 15 0 12 -13 15 -55 15 -57 0 -70 -12 -38 -35 17 -12 17 -15 0
-51 -10 -20 -22 -33 -26 -28 -4 5 -24 33 -45 62 -37 51 -38 52 -90 52 -58 0
-71 -6 -55 -26 8 -10 1 -31 -27 -84 -21 -38 -41 -70 -45 -70 -4 0 -19 41 -35
90 -32 104 -43 110 -109 57z m15 -52 c0 -20 -5 -25 -27 -25 l-26 0 23 25 c13
14 25 25 27 25 2 0 3 -11 3 -25z"/>
<path d="M3890 2430 c0 -5 5 -10 10 -10 17 0 12 -14 -32 -90 -23 -40 -52 -77
-65 -83 -44 -20 -10 -27 117 -26 106 1 131 4 143 17 31 36 28 43 -9 23 -32
-17 -114 -30 -114 -17 0 1 5 17 11 35 9 25 16 31 39 31 16 0 32 -5 36 -11 4
-7 14 1 27 20 20 32 17 55 -5 33 -12 -12 -68 -17 -68 -7 0 3 9 23 20 44 16 33
24 38 48 36 33 -3 72 -22 72 -35 0 -6 6 -10 13 -10 15 0 39 44 30 54 -11 11
-273 7 -273 -4z"/>
<path d="M4235 2421 c7 -22 -58 -161 -81 -174 -35 -20 -8 -27 95 -26 l110 1
25 39 c29 43 25 51 -10 18 -21 -19 -104 -40 -104 -25 0 16 81 166 90 166 6 0
10 5 10 10 0 6 -30 10 -71 10 -65 0 -70 -1 -64 -19z"/>
<path d="M4530 2431 c0 -5 6 -11 13 -14 17 -6 -65 -159 -92 -172 -12 -5 -21
-13 -21 -17 0 -4 58 -7 129 -7 123 0 129 1 151 24 31 33 19 43 -18 16 -19 -13
-45 -21 -71 -21 -44 0 -47 4 -31 44 7 20 17 26 38 26 15 0 33 -5 38 -10 7 -7
16 1 27 25 17 35 17 35 -2 25 -11 -5 -31 -10 -45 -10 l-26 0 15 37 c9 21 20
40 26 44 20 12 74 -1 91 -21 20 -25 27 -25 44 -3 25 35 0 43 -137 43 -72 0
-129 -4 -129 -9z"/>
<path d="M4612 2060 c-69 -14 -129 -50 -157 -92 -18 -27 -32 -38 -50 -38 -14
0 -25 -4 -25 -10 0 -5 9 -10 20 -10 18 0 19 -3 9 -22 -7 -13 -10 -51 -7 -100
5 -77 4 -78 -19 -78 -14 0 -21 -4 -18 -10 3 -5 18 -10 33 -10 20 0 38 -12 65
-44 44 -53 41 -55 -81 -58 l-87 -2 114 -5 114 -6 38 -55 c49 -69 56 -120 19
-131 -23 -6 -23 -7 -3 -8 33 -2 35 -14 6 -59 -31 -48 -63 -62 -139 -62 -100 0
-145 74 -124 202 5 34 8 63 6 65 -2 2 -24 -30 -50 -71 -26 -41 -56 -78 -68
-82 -14 -4 -17 -9 -9 -13 9 -6 7 -14 -7 -31 l-18 -23 -34 64 c-68 131 -93 175
-116 206 l-25 32 28 7 c46 11 136 60 192 104 142 112 111 278 -59 320 -28 7
-129 10 -265 8 -183 -3 -220 -5 -220 -17 0 -8 14 -18 32 -23 18 -5 35 -13 38
-18 3 -5 -15 -48 -41 -95 l-48 -85 -42 0 c-23 0 -49 -3 -58 -6 -27 -10 -7 -24
36 -24 47 0 48 4 -18 -117 l-45 -83 -45 0 c-24 0 -44 -4 -44 -10 0 -5 10 -10
23 -10 52 -1 50 -12 -24 -142 -71 -126 -83 -138 -136 -138 -30 0 -40 -20 -18
-37 28 -20 368 -19 385 2 13 16 6 35 -15 35 -8 0 -18 8 -24 17 -10 18 -4 29
128 275 40 76 65 87 100 43 20 -27 51 -142 51 -193 0 -36 -13 -42 -91 -42 -33
0 -59 -4 -59 -10 0 -6 33 -10 79 -10 l78 0 7 -62 c4 -35 10 -73 13 -85 5 -23
3 -23 -86 -23 -54 0 -91 -4 -91 -10 0 -6 37 -10 90 -10 l89 0 26 -53 c76 -162
266 -277 454 -277 237 1 459 139 666 413 63 85 128 204 119 219 -4 6 -10 4
-16 -6 -6 -10 -22 -16 -43 -16 -19 0 -35 -4 -35 -10 0 -5 11 -10 25 -10 30 0
31 -9 5 -60 -32 -63 -92 -120 -118 -113 -12 3 -22 1 -22 -5 0 -6 12 -12 26
-14 24 -3 21 -8 -60 -90 -85 -87 -86 -88 -136 -88 -27 0 -50 -4 -50 -10 0 -5
14 -10 31 -10 27 0 30 -2 19 -15 -20 -24 -121 -75 -181 -90 -163 -42 -311 9
-385 132 -41 69 -71 178 -54 198 13 16 105 21 114 7 3 -5 40 -19 82 -32 102
-30 188 -26 264 14 70 36 95 59 120 111 46 96 14 211 -95 335 -96 110 -127
204 -88 270 31 53 112 66 182 30 63 -32 93 -121 43 -128 -29 -4 -29 -19 1 -18
23 1 25 -6 16 -68 -2 -16 1 -31 7 -33 13 -4 157 244 149 257 -3 5 -19 5 -38
-1 -53 -15 -87 -10 -151 21 -67 33 -138 44 -204 30z m-545 -69 c35 -45 -23
-200 -99 -265 -47 -40 -63 -43 -98 -19 -14 9 -26 17 -28 18 -2 2 28 59 75 144
55 99 77 136 86 142 14 10 50 -2 64 -20z"/>
<path d="M1785 1158 c-8 -20 57 -208 120 -348 81 -182 170 -327 317 -522 33
-43 55 -78 50 -78 -5 0 -46 11 -93 25 -96 29 -272 113 -371 177 -153 100 -327
271 -423 417 -34 51 -55 63 -55 32 0 -51 155 -248 286 -363 283 -249 613 -379
969 -379 252 0 453 45 670 151 181 88 363 228 477 366 82 99 178 251 171 270
-8 21 -24 13 -42 -22 -76 -141 -235 -316 -394 -435 -79 -59 -276 -169 -303
-169 -6 0 -31 60 -56 133 -40 117 -75 223 -203 622 -37 115 -50 139 -61 112
-6 -18 13 -84 147 -502 50 -154 97 -302 106 -328 10 -34 12 -52 5 -59 -20 -20
-234 -68 -352 -79 -87 -8 -155 -9 -251 -1 -152 13 -142 7 -246 140 -194 248
-311 467 -415 776 -22 68 -43 92 -53 64z"/>
</g>
</svg>
